<?xml version="1.0" encoding="UTF-8" standalone="no"?>
<svg
   viewBox="0 952300 2500 2800"
   version="1.1"
   id="svg13"
   xml:space="preserve"
   width="800"
   height="900"
   xmlns="http://www.w3.org/2000/svg"
   xmlns:svg="http://www.w3.org/2000/svg"><defs
     id="defs13" /><g
     id="g13"
     transform="matrix(14.830925,0,0,14.830925,233.15514,952325.74)"><path
       d="m 63.29,9.93 c 14.92,0.22 16.4,3.61 20.77,3.73 6.32,0.18 15.98,-11.97 29.07,-0.99 12.9,10.82 2.39,27.8 2.39,27.8 0,0 7.18,12.72 8.02,32.1 0.61,14.03 -4.79,31.49 -29,41.39 -22.29,9.12 -55.55,7.3 -75.88,-8.31 C 2.9,93.56 4.01,75.92 4.44,69.91 5.57,54.14 12.46,41.47 12.46,41.47 c 0,0 -10.19,-20.15 2.25,-29.7 13.66,-10.49 23.38,1.86 29,1.41 4.09,-0.34 5.43,-3.46 19.58,-3.25 z"
       fill="#855b52"
       id="path1-3" /><path
       d="m 35.98,20.77 c -0.19,-1.11 -7.43,-8.29 -14.92,-0.99 -5.77,5.63 0,15.42 0.99,14.64 0.76,-0.6 3.56,-4.21 6.83,-7.32 3.35,-3.19 7.17,-5.9 7.1,-6.33 z"
       fill="#b99277"
       id="path2-6" /><path
       d="m 92.5,20.84 c -0.05,0.62 3.81,2.95 7.32,6.26 3.55,3.35 6.75,7.67 7.32,7.6 1.13,-0.14 5.98,-9.64 -0.35,-14.99 -6.33,-5.35 -14.15,-0.7 -14.29,1.13 z"
       fill="#b99277"
       id="path3-7" /><path
       d="m 64.51,60.38 c 14.64,0 23.42,16.52 22.9,26.84 C 86.94,96.61 81.59,104.4 63.57,104.3 45.55,104.21 40.98,95.94 40.67,87.12 40.39,79.24 46.02,60.38 64.51,60.38 Z"
       fill="#f2a258"
       id="path4-5" /><path
       d="m 92.92,59.7 c 0.33,4.16 -1.9,7.95 -6.17,7.63 -4.12,-0.32 -7.13,-3.66 -7.13,-7.84 0,-4.18 2.22,-7.14 5.56,-7.6 4.08,-0.57 7.27,1.9 7.74,7.81 z"
       fill="#171716"
       id="path5-3" /><path
       d="m 74.55,76.99 c -0.34,4.16 -3.1,8.61 -11.12,8.33 -6.73,-0.24 -9.9,-4.72 -10,-8.89 -0.14,-5.89 3,-8.06 10.61,-8.17 8.68,-0.11 10.98,3.01 10.51,8.73 z"
       fill="#2f3030"
       id="path6-5" /><path
       d="m 48.37,61.25 c -0.43,4.15 -4.33,7.06 -7.98,6.17 -4.01,-0.98 -5.81,-5.2 -4.97,-9.29 0.75,-3.66 3.96,-6.51 7.6,-6.1 3.8,0.42 5.89,3.99 5.35,9.22 z"
       fill="#171716"
       id="path7-6" /><path
       d="m 63.99,95.04 c 5.49,0 8.49,-3.03 9.34,-3.87 0.85,-0.84 1.99,-2.28 3.75,-0.84 1.5,1.22 0.02,3.12 -0.66,3.85 -1.22,1.31 -4.9,5.31 -12.93,4.95 -7.88,-0.35 -10.91,-3.92 -11.76,-4.76 -0.84,-0.84 -2.25,-3 -0.66,-4.22 1.91,-1.46 2.53,0.19 4.5,1.78 1.97,1.59 3.21,3.11 8.42,3.11 z"
       fill="#2f3030"
       id="path8-2" /></g><path
     opacity="0.2"
     d="m 1140.333,953458.42 v 103.15 c -104.963,-24.86 -191.679,-98.47 -233.25,-198 h 138.395 c 52.305,0.2 94.656,42.55 94.855,94.85 z"
     id="path10" /><linearGradient
     id="a"
     gradientUnits="userSpaceOnUse"
     x1="198.099"
     y1="1683.0726"
     x2="942.23438"
     y2="394.26071"
     gradientTransform="matrix(1,0,0,-1,0,954972.4)"><stop
       offset="0"
       stop-color="#5a62c3"
       id="stop10" /><stop
       offset=".5"
       stop-color="#4d55bd"
       id="stop11" /><stop
       offset="1"
       stop-color="#3940ab"
       id="stop12" /></linearGradient><path
     fill="url(#a)"
     d="m 95.01,953363.57 h 950.312 c 52.473,0 95.01,42.53 95.01,95.01 v 950.31 c 0,52.47 -42.538,95.01 -95.01,95.01 H 95.01 c -52.473,0 -95.01,-42.54 -95.01,-95.01 v -950.31 c 0,-52.48 42.538,-95.01 95.01,-95.01 z"
     id="path12"
     style="fill:url(#a)" /><path
     fill="#ffffff"
     d="m 820.211,953725.26 h -189.97 v 517.3 h -121.03 v -517.3 H 320.123 v -100.35 h 500.088 z"
     id="path13" /></svg>
