<?xml version="1.0" encoding="UTF-8" standalone="no"?>
<svg
   viewBox="0 948400 2500 2800"
   version="1.1"
   id="svg13"
   xml:space="preserve"
   width="800"
   height="900"
   xmlns="http://www.w3.org/2000/svg"
   xmlns:svg="http://www.w3.org/2000/svg"><defs
     id="defs13" /><g
     id="g13"
     transform="matrix(16.113764,0,0,16.113764,66.635185,948473.71)"><path
       d="m 99.06,91.42 c 0,0 -15.11,14.18 -35.09,14.18 -19.98,0 -35.08,-14.18 -35.08,-14.18 0,0 -2.81,-13.49 4.45,-36.78 3.83,-12.28 58.33,-13.53 62.6,-2.79 7.26,18.23 3.12,39.57 3.12,39.57 z"
       fill="#424242"
       id="path1" /><path
       d="m 28.89,91.42 4.79,3.84 c 0,0 -0.04,-7.6 2.31,-14.69 0.88,-2.65 4.02,-3.76 6.38,-2.27 l 18.29,11.47 a 6.389,6.389 0 0 0 6.7,0.05 C 76.1,84.52 98.9,70.65 99.94,69.8 c 0,0 0,-1.71 -0.43,-3.89 L 28.63,66 Z"
       fill="#212121"
       id="path2" /><path
       d="m 122.81,52.03 -56.8,33.83 c -1.24,0.74 -2.79,0.74 -4.04,0 L 5.19,52.03 c -1.58,-0.94 -1.58,-3.23 0,-4.17 l 56.8,-33.83 c 1.24,-0.74 2.79,-0.74 4.04,0 l 56.8,33.83 c 1.57,0.94 1.57,3.23 -0.02,4.17 z"
       fill="#424242"
       id="path3" /><path
       d="m 64.04,83.38 c -0.01,0 -0.03,0.01 -0.04,0.01 -0.16,0 -0.32,-0.04 -0.46,-0.13 L 4.18,49.04 c 0,0 -0.29,0.55 0,1.54 0.3,0.99 0.76,1.31 1.01,1.46 l 56.8,33.83 c 0.62,0.37 1.32,0.56 2.02,0.56 h 0.04 v -3.05 z"
       fill="#9e9e9e"
       id="path4" /><path
       d="m 64,83.38 c 0.01,0 0.03,0.01 0.04,0.01 0.16,0 0.32,-0.04 0.46,-0.13 l 59.36,-34.22 c 0,0 0.29,0.55 0,1.54 -0.3,0.99 -0.76,1.31 -1.01,1.46 l -56.8,33.83 c -0.62,0.37 -1.32,0.56 -2.02,0.56 h -0.04 v -3.05 z"
       fill="#616161"
       id="path5" /><path
       d="m 35.45,70.06 0.32,-2.81 c 0,0 24.51,-13.33 26.93,-14.73 2.42,-1.4 4.96,-2.96 6.09,-4.21 2,-2.2 0.56,-3.58 0.56,-3.58 0,0 -1.58,2.56 -5.35,2.11 -2.16,-0.26 -4.97,-2.01 -5.44,-2.83 -0.47,-0.82 -27.67,19.9 -27.67,19.9 l -0.19,3.33 z"
       fill="#424242"
       id="path6" /><path
       d="m 69.35,44.74 c -2.62,3.66 -7.06,2.06 -7.06,2.06 0,0 -13.91,6.67 -14.43,5.66 -0.52,-1.01 11.49,-7.19 11.49,-7.19 0,0 -0.67,-2.46 -0.6,-3.51 0,0 -21.72,13.82 -29.87,18.47 -4.27,2.44 -5.18,4.74 -5.17,7.98 0,1.42 0.02,6.03 0.04,8.78 0,0.51 -0.22,0.99 -0.61,1.31 a 5.162,5.162 0 0 0 -1.89,3.99 c 0,1.53 0.67,2.9 1.73,3.85 0.57,0.51 0.45,1.61 0.5,2.32 0.1,1.36 0,1.98 -0.56,3.24 -0.55,1.23 -1.06,2.49 -1.41,3.79 -0.27,1 -0.45,2.03 -0.63,3.05 -1.19,6.83 -1.73,14.13 -4.88,20.41 a 0.993,0.993 0 0 0 0.45,1.34 1.007,1.007 0 0 0 1.35,-0.44 c 1.64,-3.27 2.49,-6.85 3.19,-10.4 -0.04,3.21 -0.06,6.45 -0.17,9.95 -0.02,0.68 -0.07,2.05 0.55,2.35 2.33,1.13 2.33,-2.35 2.33,-2.35 0,0 0.03,3.13 3.2,3.13 3.17,0 3.4,-3.13 3.4,-3.13 0,0 0.23,2.87 1.86,2.73 0.66,-0.06 1.53,-0.46 1.22,-3.89 -0.31,-3.42 -1.08,-15.68 -1.41,-19.56 -0.46,-5.37 -2.22,-8.56 -2.58,-10.46 -0.13,-0.72 -0.14,-1.47 0.43,-1.94 a 5.165,5.165 0 0 0 0.13,-7.88 1.71,1.71 0 0 1 -0.58,-1.42 c 0.19,-2.59 0.4,-6.35 0.57,-7.22 0.74,-3.91 2.67,-4.61 4.65,-5.77 1.98,-1.17 30.66,-14.19 32.33,-15.3 3.09,-2.07 2.43,-3.95 2.43,-3.95 z"
       fill="#e2a610"
       id="path7" /><path
       d="m 69.35,44.74 c -2.47,3.49 -7.6,1.93 -7.6,1.93 0,0 -13.11,5.81 -12.24,4.76 0.86,-1.05 9.84,-6.16 9.84,-6.16 0,0 -0.67,-2.46 -0.6,-3.51 0,0 -22.1,12.77 -30.67,18.91 -2.21,1.59 -4.95,4.19 -2.72,6.78 1.03,1.19 3.02,1.44 4.29,0.5 0.77,-0.56 1.37,-1.38 2.05,-2.03 0.84,-0.82 1.86,-1.34 2.86,-1.93 1.98,-1.17 30.66,-14.19 32.33,-15.3 3.12,-2.07 2.46,-3.95 2.46,-3.95 z"
       fill="#ffca28"
       id="path8" /><path
       d="m 26.11,91.86 c -1.32,0 -2.21,-0.11 -3.02,-0.3 a 0.62,0.62 0 0 1 -0.48,-0.65 l 0.26,-3.82 c 0.03,-0.39 0.4,-0.66 0.78,-0.55 0.9,0.26 2.7,0.52 5.64,-0.1 0.36,-0.08 0.72,0.17 0.76,0.54 l 0.4,3.8 c 0.03,0.31 -0.17,0.6 -0.47,0.67 -1.53,0.35 -2.64,0.41 -3.87,0.41 z"
       fill="#9e740b"
       id="path9" /><path
       d="m 99.06,91.42 c 0,0 1.77,-9.24 1.06,-19.07 -0.12,-1.66 -1.14,-3.09 -1.93,2.72 -0.45,3.33 -1.43,13.3 -3.1,19.53 2.55,-1.84 3.97,-3.18 3.97,-3.18 z"
       fill="#616161"
       id="path10-2" /><path
       d="m 65.73,36.79 c 0.73,0.23 1.4,0.79 1.59,1.54 0.25,1 -0.38,2 -1.06,2.78 -1.33,1.53 -3.16,2.87 -5.19,2.8 -0.67,-0.02 -1.39,-0.24 -1.8,-0.77 -0.29,-0.37 -0.39,-0.85 -0.42,-1.32 -0.18,-3.43 3.7,-6.03 6.88,-5.03 z"
       fill="#616161"
       id="path11" /></g><path
     opacity="0.2"
     d="m 1140.333,949709.98 v 103.15 c -104.963,-24.86 -191.679,-98.47 -233.25,-198 h 138.395 c 52.305,0.2 94.656,42.55 94.855,94.85 z"
     id="path10" /><linearGradient
     id="a"
     gradientUnits="userSpaceOnUse"
     x1="198.099"
     y1="1683.0726"
     x2="942.23438"
     y2="394.26071"
     gradientTransform="matrix(1,0,0,-1,0,951223.96)"><stop
       offset="0"
       stop-color="#5a62c3"
       id="stop10" /><stop
       offset=".5"
       stop-color="#4d55bd"
       id="stop11" /><stop
       offset="1"
       stop-color="#3940ab"
       id="stop12" /></linearGradient><path
     fill="url(#a)"
     d="m 95.01,949615.13 h 950.312 c 52.473,0 95.01,42.54 95.01,95.01 v 950.31 c 0,52.47 -42.538,95.01 -95.01,95.01 H 95.01 c -52.473,0 -95.01,-42.54 -95.01,-95.01 v -950.31 c 0,-52.47 42.538,-95.01 95.01,-95.01 z"
     id="path12"
     style="fill:url(#a)" /><path
     fill="#ffffff"
     d="m 820.211,949976.82 h -189.97 v 517.3 h -121.03 v -517.3 H 320.123 v -100.35 h 500.088 z"
     id="path13" /></svg>
